<svg xmlns="http://www.w3.org/2000/svg" viewBox="0 0 30 30"><style>.st2{fill:#333}</style><g id="Layer_1"><path class="st2" d="M12 15.304c.883 0 4.025 0 4.489-.03-.884 1.912-2.23 5.57-2.993 8.726h1.527c.598-2.755 1.78-6.281 2.977-8.844V14h-6v1.304z"/><path class="st2" d="M26 25.503V5.5a.5.5 0 0 0-.5-.5H22V3.5c0-.827-.673-1.5-1.5-1.5S19 2.673 19 3.5V5h-8V3.5c0-.827-.673-1.5-1.5-1.5S8 2.673 8 3.5V5H4.5a.5.5 0 0 0-.5.5v20.002A2.501 2.501 0 0 0 6.498 28h17.005A2.5 2.5 0 0 0 26 25.503zM20 3.5a.5.5 0 0 1 1 0v3a.5.5 0 0 1-1 0v-3zm-11 0a.5.5 0 0 1 1 0v3a.5.5 0 0 1-1 0v-3zM8 6v.5C8 7.327 8.673 8 9.5 8S11 7.327 11 6.5V6h8v.5c0 .827.673 1.5 1.5 1.5S22 7.327 22 6.5V6h3v4H5V6h3zm15.503 21H6.498A1.5 1.5 0 0 1 5 25.502V11h20v14.503A1.5 1.5 0 0 1 23.503 27z"/></g></svg>