<svg xmlns="http://www.w3.org/2000/svg" viewBox="0 0 30 30"><style>.st2{fill:#333}</style><g id="Layer_1"><path class="st2" d="M15 6a.5.5 0 0 0-.5.5v8.793l-4.354 4.354a.5.5 0 1 0 .707.707l4.5-4.5a.5.5 0 0 0 .147-.354v-9A.5.5 0 0 0 15 6z"/><path class="st2" d="M24.215 24.158A12.957 12.957 0 0 0 28 15c0-3.57-1.448-6.807-3.785-9.159-.01-.01-.013-.023-.023-.033s-.023-.014-.033-.023A12.957 12.957 0 0 0 15 2c-3.57 0-6.808 1.448-9.16 3.786-.01.009-.023.012-.032.022s-.013.022-.022.032A12.957 12.957 0 0 0 2 15c0 3.57 1.448 6.807 3.785 9.159.01.01.013.024.023.033s.023.014.033.023A12.957 12.957 0 0 0 15 28c3.57 0 6.806-1.448 9.158-3.785.01-.009.024-.013.034-.023s.014-.023.023-.034zm-1.361-2.012a.5.5 0 1 0-.707.707l.964.965a11.937 11.937 0 0 1-7.611 3.157V26a.5.5 0 1 0-1 0v.975a11.936 11.936 0 0 1-7.611-3.157l.965-.964a.5.5 0 1 0-.707-.707l-.965.964A11.936 11.936 0 0 1 3.025 15.5H4.5a.5.5 0 1 0 0-1H3.025a11.936 11.936 0 0 1 3.157-7.61l.964.964a.499.499 0 0 0 .708 0 .5.5 0 0 0 0-.707l-.965-.965A11.936 11.936 0 0 1 14.5 3.025V4a.5.5 0 1 0 1 0v-.975a11.936 11.936 0 0 1 7.611 3.157l-.965.964a.5.5 0 1 0 .707.708l.965-.965a11.936 11.936 0 0 1 3.157 7.611H26a.5.5 0 1 0 0 1h.975a11.936 11.936 0 0 1-3.157 7.611l-.965-.965z"/></g></svg>